# xmcd
#
# Track frame offsets:
#	220
#	16828
#	34138
#	50318
#	81380
#	115480
#	146490
#	171518
#	188360
#	203333
#	221083
#	235780
#	244408
#	257318
#	269030
#	281533
#
# Disc length: 3987 seconds
# Revision: 0
# Processed by: cddbd v1.5.2PL0 Copyright (c) Steve Scherf et al.
# Submitted via: dBpowerAMP V12.0
#
DISCID=e30f9110
DTITLE=Various Artist - Sweet Soul Music
DYEAR=1900
DGENRE=Soul
TTITLE0=Dina Carroll - Don't Stop The Music (Radio Edit)
TTITLE1=The Supremes - Nathan Jones
TTITLE2=Brenda Holloway - Every Little Bit Hurts
TTITLE3=Barbara Mason - Another Man
TTITLE4=Frances Nero - Footsteps Following Me
TTITLE5=Odyssey - (Joy) I Know It
TTITLE6=Ronnie Dyson and Vicki Austen - Are We So Far Apart?
TTITLE7=G C Cameron - Just My Imagination (Running Away With Me)
TTITLE8=The Contours - Ain't Nothing But A House Party
TTITLE9=Evelyn Thomas - Heartless
TTITLE10=Marv Johnson - I'll Pick A Rose For My Rose
TTITLE11=The Drifters - Saturday Night At The Movies
TTITLE12=The Detroit Emeralds - You Want It, Yo Got It
TTITLE13=Brook Benton - Kiddio
TTITLE14=Eddie Floyd - Bring It On Home To Me
TTITLE15=Johnny Bristol and Liz Sands - Hang On In There Baby
EXTD=
EXTT0=
EXTT1=
EXTT2=
EXTT3=
EXTT4=
EXTT5=
EXTT6=
EXTT7=
EXTT8=
EXTT9=
EXTT10=
EXTT11=
EXTT12=
EXTT13=
EXTT14=
EXTT15=
PLAYORDER=
